<svg width="24" height="24" viewBox="0 0 24 24" fill="none" xmlns="http://www.w3.org/2000/svg">
<path fill-rule="evenodd" clip-rule="evenodd" d="M11.6115 2C6.30323 2 2 6.20819 2 11.3993C2 16.5903 6.30323 20.7985 11.6115 20.7985C13.8817 20.7985 15.9681 20.0288 17.6127 18.7418L20.7366 21.7887L20.8197 21.8587C21.1097 22.0686 21.5209 22.0447 21.7834 21.7874C22.0721 21.5043 22.0715 21.046 21.782 20.7637L18.6949 17.7526C20.2648 16.0796 21.2231 13.8489 21.2231 11.3993C21.2231 6.20819 16.9198 2 11.6115 2ZM11.6115 3.44774C16.1022 3.44774 19.7426 7.00776 19.7426 11.3993C19.7426 15.7908 16.1022 19.3508 11.6115 19.3508C7.12086 19.3508 3.48044 15.7908 3.48044 11.3993C3.48044 7.00776 7.12086 3.44774 11.6115 3.44774Z" fill="#191B1D"/>
</svg>
